<mxfile host="app.diagrams.net" modified="2023-10-22T19:23:56.109Z" agent="Mozilla/5.0 (Windows NT 10.0; Win64; x64) AppleWebKit/537.36 (KHTML, like Gecko) Chrome/118.0.0.0 Safari/537.36" etag="125I2joVUijZ_aYlZLlG" version="22.0.6" type="device">
  <diagram name="第 1 页" id="zsCV80GLPIzc_q5skyL3">
    <mxGraphModel dx="698" dy="439" grid="1" gridSize="10" guides="1" tooltips="1" connect="1" arrows="1" fold="1" page="1" pageScale="1" pageWidth="827" pageHeight="1169" math="0" shadow="0">
      <root>
        <mxCell id="0" />
        <mxCell id="1" parent="0" />
        <mxCell id="FJyEcGVav6GaVmZnhJCD-1" value="Spring Framework" style="rounded=1;whiteSpace=wrap;html=1;" vertex="1" parent="1">
          <mxGeometry x="610" y="260" width="80" height="150" as="geometry" />
        </mxCell>
        <mxCell id="FJyEcGVav6GaVmZnhJCD-2" value="File I/O" style="rounded=1;whiteSpace=wrap;html=1;" vertex="1" parent="1">
          <mxGeometry x="250" y="380" width="350" height="30" as="geometry" />
        </mxCell>
        <mxCell id="FJyEcGVav6GaVmZnhJCD-4" value="Models" style="rounded=1;whiteSpace=wrap;html=1;" vertex="1" parent="1">
          <mxGeometry x="430" y="340" width="170" height="30" as="geometry" />
        </mxCell>
        <mxCell id="FJyEcGVav6GaVmZnhJCD-5" value="Bussiness" style="rounded=1;whiteSpace=wrap;html=1;" vertex="1" parent="1">
          <mxGeometry x="250" y="300" width="350" height="30" as="geometry" />
        </mxCell>
        <mxCell id="FJyEcGVav6GaVmZnhJCD-6" value="Helpers" style="rounded=1;whiteSpace=wrap;html=1;" vertex="1" parent="1">
          <mxGeometry x="250" y="340" width="170" height="30" as="geometry" />
        </mxCell>
        <mxCell id="FJyEcGVav6GaVmZnhJCD-7" value="Spring Shell" style="rounded=1;whiteSpace=wrap;html=1;" vertex="1" parent="1">
          <mxGeometry x="250" y="260" width="350" height="30" as="geometry" />
        </mxCell>
      </root>
    </mxGraphModel>
  </diagram>
</mxfile>
